<mxfile host="app.diagrams.net" agent="Mozilla/5.0 (Windows NT 10.0; Win64; x64) AppleWebKit/537.36 (KHTML, like Gecko) Chrome/134.0.0.0 Safari/537.36" version="26.2.0">
  <diagram id="prtHgNgQTEPvFCAcTncT" name="Page-1">
    <mxGraphModel dx="816" dy="429" grid="1" gridSize="10" guides="1" tooltips="1" connect="1" arrows="1" fold="1" page="1" pageScale="1" pageWidth="827" pageHeight="1169" math="0" shadow="0">
      <root>
        <mxCell id="0" />
        <mxCell id="1" parent="0" />
        <mxCell id="5BJVbKY6UXJ1_XJSnjll-1" value="" style="swimlane;horizontal=0;whiteSpace=wrap;html=1;startSize=23;swimlaneFillColor=none;textShadow=0;fillColor=#ffe6cc;strokeColor=#d79b00;fillStyle=auto;" vertex="1" parent="1">
          <mxGeometry x="90" y="190" width="470" height="110" as="geometry" />
        </mxCell>
      </root>
    </mxGraphModel>
  </diagram>
</mxfile>
